<?xml version="1.0" encoding="UTF-8" standalone="no"?>
<!-- Created with Inkscape (http://www.inkscape.org/) -->

<svg
   width="210mm"
   height="297mm"
   viewBox="0 0 210 297"
   version="1.1"
   id="svg1"
   inkscape:version="1.3.2 (091e20e, 2023-11-25, custom)"
   sodipodi:docname="Wheel Top.svg"
   xmlns:inkscape="http://www.inkscape.org/namespaces/inkscape"
   xmlns:sodipodi="http://sodipodi.sourceforge.net/DTD/sodipodi-0.dtd"
   xmlns="http://www.w3.org/2000/svg"
   xmlns:svg="http://www.w3.org/2000/svg">
  <sodipodi:namedview
     id="namedview1"
     pagecolor="#ffffff"
     bordercolor="#000000"
     borderopacity="0.25"
     inkscape:showpageshadow="2"
     inkscape:pageopacity="0.0"
     inkscape:pagecheckerboard="0"
     inkscape:deskcolor="#d1d1d1"
     inkscape:document-units="mm"
     inkscape:zoom="2.8970538"
     inkscape:cx="219.36079"
     inkscape:cy="189.33028"
     inkscape:window-width="1920"
     inkscape:window-height="1009"
     inkscape:window-x="-8"
     inkscape:window-y="-8"
     inkscape:window-maximized="1"
     inkscape:current-layer="layer1" />
  <defs
     id="defs1">
    <rect
       x="421.76659"
       y="254.32916"
       width="18.061763"
       height="150.84013"
       id="rect19" />
  </defs>
  <g
     inkscape:label="Layer 1"
     inkscape:groupmode="layer"
     id="layer1"
     sodipodi:insensitive="true">
    <path
       id="rect1"
       style="fill:#fce431;stroke:#000000;stroke-width:0.1"
       d="m 63.029604,13.535822 -0.0094,0.07122 a 37,37 0 0 0 -7.653689,0.02804 l -0.013,-0.09919 -1.982731,0.261237 0.003,0.02124 A 37,37 0 0 0 45.997706,15.8829 l -0.04114,-0.09924 -1.847894,0.765289 0.02297,0.05515 a 37,37 0 0 0 -6.613506,3.857848 l -0.05739,-0.07479 -1.586385,1.217733 0.05695,0.07422 a 37,37 0 0 0 -5.437592,5.389742 l -0.04733,-0.03647 -1.217482,1.586863 0.08521,0.06542 a 37,37 0 0 0 -3.903249,6.590406 l -0.01975,-0.0083 -0.76557,1.848073 0.09244,0.03822 a 37,37 0 0 0 -2.008455,7.385064 l -0.0707,-0.0093 -0.130518,0.991385 -0.130585,0.991891 0.07122,0.0094 a 37,37 0 0 0 0.02804,7.653689 l -0.09919,0.013 0.260722,1.982663 0.02175,-0.0029 a 37,37 0 0 0 2.064527,7.376079 l -0.09924,0.04114 0.765287,1.847899 0.05515,-0.02298 a 37,37 0 0 0 3.857854,6.613511 l -0.07479,0.05739 1.217224,1.586321 0.07479,-0.05739 a 37,37 0 0 0 5.389673,5.438097 l -0.03646,0.04733 1.586857,1.217482 0.06542,-0.08521 a 37,37 0 0 0 6.590404,3.903253 l -0.0083,0.01975 1.847557,0.765503 0.03823,-0.09244 a 37,37 0 0 0 7.385638,2.008008 l -0.0094,0.07121 0.991891,0.130585 0.99088,0.130452 0.0032,-0.02408 a 37,37 0 0 0 7.669889,0.0033 l 0.003,0.02073 1.983246,-0.261169 -0.0024,-0.01752 a 37,37 0 0 0 7.409987,-1.985529 l 0.0067,0.01652 1.847899,-0.765288 -0.0083,-0.01986 a 37,37 0 0 0 6.641065,-3.837548 l 0.01469,0.01913 0.787354,-0.604158 0.0063,-0.0044 a 37,37 0 0 0 0.0058,-0.0045 l 0.787356,-0.604169 -0.01513,-0.01971 a 37,37 0 0 0 5.426574,-5.420896 l 0.01659,0.01261 1.217482,-1.586863 -0.01422,-0.01075 a 37,37 0 0 0 3.835204,-6.643673 l 0.01681,0.007 0.765504,-1.847558 -0.01975,-0.0084 a 37,37 0 0 0 1.982453,-7.409335 l 0.02408,0.0032 0.130585,-0.991891 0.130518,-0.991385 -0.0707,-0.0093 a 37,37 0 0 0 -0.02863,-7.653251 l 0.09919,-0.013 -0.261169,-1.983246 -0.02124,0.003 A 37,37 0 0 0 93.65887,37.155878 l 0.09924,-0.04114 -0.765288,-1.847899 -0.05515,0.02298 a 37,37 0 0 0 -3.857333,-6.613442 l 0.07421,-0.05695 -1.217666,-1.586893 -0.0748,0.05739 a 37,37 0 0 0 -5.38916,-5.438029 l 0.03647,-0.04733 -1.586863,-1.217483 -0.06542,0.08521 A 37,37 0 0 0 74.266654,16.5689 l 0.0083,-0.01975 -1.848073,-0.765571 -0.03822,0.09244 a 37,37 0 0 0 -7.38557,-2.008524 l 0.0093,-0.0707 -0.99088,-0.130452 z m -0.139826,1.062085 -1.435835,10.906251 a 25,25 0 0 0 -4.523092,0.01123 L 55.496845,14.624836 a 36,36 0 0 1 7.392933,-0.02693 z m 1.98277,0.261037 a 36,36 0 0 1 7.134045,1.939442 l -4.182454,10.09692 a 25,25 0 0 0 -4.381288,-1.176729 z m -11.367946,-0.0471 1.438504,10.92763 a 25,25 0 0 0 -4.36386,1.20494 l -4.199943,-10.13979 a 36,36 0 0 1 7.125299,-1.99278 z m 20.378465,2.682876 a 36,36 0 0 1 6.366739,3.769041 l -6.647125,8.662233 a 25,25 0 0 0 -3.929053,-2.268058 z m -29.369897,0.03161 4.200011,10.139284 a 25,25 0 0 0 -3.90813,2.292277 L 38.125376,21.25336 a 36,36 0 0 1 6.387794,-3.72703 z m 37.352395,4.917536 a 36,36 0 0 1 5.205575,5.252812 l -8.673733,6.65558 a 25,25 0 0 0 -3.209815,-3.205912 z m -45.32702,0.02665 6.679608,8.705037 a 25,25 0 0 0 -3.225663,3.181676 l -8.706754,-6.681137 a 36,36 0 0 1 5.252809,-5.205576 z m 51.749687,6.8135 a 36,36 0 0 1 3.727099,6.387279 l -10.134337,4.198058 a 25,25 0 0 0 -2.265912,-3.930194 z m -58.182604,0.0078 8.707265,6.681204 a 25,25 0 0 0 -2.293337,3.903303 L 26.336591,35.658596 a 36,36 0 0 1 3.769037,-6.36674 z m 62.631408,8.245581 a 36,36 0 0 1 1.99278,7.125298 l -10.906395,1.435571 a 25,25 0 0 0 -1.173796,-4.382695 z m -67.096783,-0.0024 10.148318,4.203816 a 25,25 0 0 0 -1.181442,4.365559 L 23.700877,44.668608 a 36,36 0 0 1 1.939376,-7.133539 z m 69.276505,9.120425 a 36,36 0 0 1 0.027,7.392417 L 84.084122,52.618213 a 25,25 0 0 0 -0.0027,-4.536054 z m -71.476984,-0.0036 10.906252,1.435835 a 25,25 0 0 0 0.01123,4.523091 l -10.89055,1.434006 a 36,36 0 0 1 -0.02693,-7.392932 z m 60.336627,7.943467 10.951847,1.441838 a 36,36 0 0 1 -1.916835,7.156316 l -10.216525,-4.23209 a 25,25 0 0 0 1.181513,-4.366064 z m -49.195058,0.0032 a 25,25 0 0 0 1.204944,4.36386 l -10.139796,4.199942 a 36,36 0 0 1 -1.992776,-7.125297 z m 47.28263,6.224876 10.183406,4.21834 a 36,36 0 0 1 -3.703212,6.417113 L 79.57064,64.726736 a 25,25 0 0 0 2.293333,-3.903304 z m -45.356489,0.0051 a 25,25 0 0 0 2.292786,3.908194 l -8.705549,6.679542 A 36,36 0 0 1 26.3682,65.028495 Z m 41.883557,5.514075 8.738066,6.704545 a 36,36 0 0 1 -5.238365,5.242395 l -6.72537,-8.765265 A 25,25 0 0 0 78.391041,66.34254 Z M 40.017494,66.323 a 25,25 0 0 0 3.181612,3.226174 l -6.681139,8.706754 a 36,36 0 0 1 -5.206022,-5.253385 z m 33.560985,4.418902 6.725427,8.764758 a 36,36 0 0 1 -6.418533,3.703175 L 69.670352,73.03418 a 25,25 0 0 0 3.908127,-2.292278 z m -28.763553,-0.01313 a 25,25 0 0 0 3.903304,2.293333 l -4.217768,10.182968 a 36,36 0 0 1 -6.36674,-3.769041 z m 22.989356,3.026606 4.232002,10.216985 a 36,36 0 0 1 -7.156918,1.916158 L 63.440423,74.96032 a 25,25 0 0 0 4.363859,-1.204942 z m -17.224036,-0.0024 a 25,25 0 0 0 4.366064,1.181514 l -1.435835,10.90625 a 36,36 0 0 1 -7.134055,-1.9394 z m 10.871927,1.431316 1.443644,10.96375 a 36,36 0 0 1 -7.408574,-6.69e-4 l 1.441838,-10.951847 a 25,25 0 0 0 4.523092,-0.01123 z" />
    <text
       xml:space="preserve"
       transform="scale(0.26458333)"
       id="text19"
       style="font-style:normal;font-variant:normal;font-weight:normal;font-stretch:normal;font-size:26.6667px;font-family:'Barbie Vintage';-inkscape-font-specification:'Barbie Vintage, Normal';font-variant-ligatures:normal;font-variant-caps:normal;font-variant-numeric:normal;font-variant-east-asian:normal;text-align:center;letter-spacing:0px;white-space:pre;shape-inside:url(#rect19);display:inline;fill:#fce431;stroke:#000000;stroke-width:0.377953" />
  </g>
</svg>
